name Walk9.mot
datacolumns 19
datarows 12
range 1.00100000 1.01200000
endheader

                time	   L_ground_force_vx	   L_ground_force_vy	   L_ground_force_vz	   L_ground_force_px	   L_ground_force_py	   L_ground_force_pz	   R_ground_force_vx	   R_ground_force_vy	   R_ground_force_vz	   R_ground_force_px	   R_ground_force_py	   R_ground_force_pz	   L_ground_torque_x	   L_ground_torque_y	   L_ground_torque_z	   R_ground_torque_x	   R_ground_torque_y	   R_ground_torque_z	
          1.00100000	          0.00000000	          0.00000000	          0.00000000	          0.00000000	          0.00000000	          0.00000000	          0.00000000	          0.00000000	          0.00000000	          0.00000000	          0.00000000	          0.00000000	          0.00000000	          0.00000000	          0.00000000	          0.00000000	          0.00000000	          0.00000000	
          1.00200000	          0.00000000	          0.00000000	          0.00000000	          0.00000000	          0.00000000	          0.00000000	          0.00000000	          0.00000000	          0.00000000	          0.00000000	          0.00000000	          0.00000000	          0.00000000	          0.00000000	          0.00000000	          0.00000000	          0.00000000	          0.00000000	
          1.00300000	          0.00000000	          0.00000000	          0.00000000	          0.00000000	          0.00000000	          0.00000000	          0.00000000	          0.00000000	          0.00000000	          0.00000000	          0.00000000	          0.00000000	          0.00000000	          0.00000000	          0.00000000	          0.00000000	          0.00000000	          0.00000000	
          1.00400000	          0.00000000	          0.00000000	          0.00000000	          0.00000000	          0.00000000	          0.00000000	          0.00000000	          0.00000000	          0.00000000	          0.00000000	          0.00000000	          0.00000000	          0.00000000	          0.00000000	          0.00000000	          0.00000000	          0.00000000	          0.00000000	
          1.00500000	          0.00000000	          0.00000000	          0.00000000	          0.00000000	          0.00000000	          0.00000000	          0.00000000	          0.00000000	          0.00000000	          0.00000000	          0.00000000	          0.00000000	          0.00000000	          0.00000000	          0.00000000	          0.00000000	          0.00000000	          0.00000000	
          1.00600000	          0.00000000	          0.00000000	          0.00000000	          0.00000000	          0.00000000	          0.00000000	        -10.77983796	         14.70116156	         -0.06159497	         -0.30309473	          0.00000000	          0.32386894	          0.00000000	          0.00000000	          0.00000000	          0.00000000	          0.14352662	          0.00000000	
          1.00700000	          0.00000000	          0.00000000	          0.00000000	          0.00000000	          0.00000000	          0.00000000	        -17.13616203	         29.54694516	         -0.13698827	         -0.30398509	          0.00000000	          0.32038213	          0.00000000	          0.00000000	          0.00000000	          0.00000000	          0.19600541	          0.00000000	
          1.00800000	          0.00000000	          0.00000000	          0.00000000	          0.00000000	          0.00000000	          0.00000000	        -24.43292546	         50.92305235	         -0.16674620	         -0.30481037	          0.00000000	          0.31837485	          0.00000000	          0.00000000	          0.00000000	          0.00000000	          0.25237073	          0.00000000	
          1.00900000	          0.00000000	          0.00000000	          0.00000000	          0.00000000	          0.00000000	          0.00000000	        -32.28831779	         79.79327271	         -0.01334743	         -0.30551402	          0.00000000	          0.31695124	          0.00000000	          0.00000000	          0.00000000	          0.00000000	          0.29622590	          0.00000000	
          1.01000000	          0.00000000	          0.00000000	          0.00000000	          0.00000000	          0.00000000	          0.00000000	        -40.15501600	        116.40924958	          0.54010127	         -0.30596747	          0.00000000	          0.31586892	          0.00000000	          0.00000000	          0.00000000	          0.00000000	          0.32180210	          0.00000000	
          1.01100000	          0.00000000	          0.00000000	          0.00000000	          0.00000000	          0.00000000	          0.00000000	        -47.28688234	        159.72303934	          1.77194147	         -0.30614235	          0.00000000	          0.31501453	          0.00000000	          0.00000000	          0.00000000	          0.00000000	          0.33592252	          0.00000000	
          1.01200000	          0.00000000	          0.00000000	          0.00000000	          0.00000000	          0.00000000	          0.00000000	        -52.93019599	        207.24408071	          3.94780113	         -0.30609512	          0.00000000	          0.31426180	          0.00000000	          0.00000000	          0.00000000	          0.00000000	          0.34807466	          0.00000000	
